<svg id="svg" version="1.1" xmlns="http://www.w3.org/2000/svg" xmlns:xlink="http://www.w3.org/1999/xlink" width="400" height="400" viewBox="0, 0, 400,400"><g id="svgg"><path id="path0" d="M192.794 10.071 C 192.658 10.206,191.104 10.363,189.340 10.419 C 184.833 10.561,181.223 10.824,180.078 11.092 C 179.542 11.218,177.432 11.430,175.391 11.564 C 173.350 11.697,171.592 11.919,171.484 12.056 C 171.279 12.317,169.592 12.540,168.009 12.515 C 167.494 12.506,166.837 12.695,166.549 12.934 C 166.261 13.173,165.765 13.269,165.447 13.147 C 165.129 13.025,164.764 13.094,164.636 13.301 C 164.508 13.509,163.990 13.603,163.485 13.512 C 162.980 13.420,162.459 13.453,162.327 13.585 C 162.058 13.854,161.215 14.069,159.766 14.238 C 159.229 14.301,158.789 14.390,158.789 14.435 C 158.789 14.524,158.027 14.686,155.859 15.058 C 155.107 15.187,154.229 15.397,153.906 15.526 C 153.584 15.654,152.881 15.811,152.344 15.875 C 151.807 15.939,150.313 16.353,149.023 16.796 C 147.734 17.239,146.178 17.678,145.564 17.772 C 144.950 17.865,144.203 18.145,143.904 18.394 C 143.604 18.642,143.359 18.715,143.359 18.555 C 143.359 18.395,143.123 18.459,142.835 18.699 C 142.547 18.938,142.195 19.018,142.054 18.877 C 141.913 18.735,141.797 18.844,141.797 19.117 C 141.797 19.394,141.543 19.517,141.223 19.395 C 140.908 19.274,140.544 19.346,140.415 19.555 C 140.286 19.764,140.017 19.833,139.817 19.710 C 139.617 19.586,139.453 19.642,139.453 19.834 C 139.453 20.025,139.233 20.201,138.965 20.225 C 138.384 20.275,136.914 20.618,136.914 20.703 C 136.914 20.736,136.583 20.825,136.179 20.901 C 135.775 20.977,135.257 21.228,135.027 21.457 C 134.797 21.687,134.244 21.875,133.798 21.875 C 133.352 21.875,132.596 22.149,132.118 22.483 C 131.641 22.818,131.250 23.002,131.250 22.894 C 131.250 22.786,130.723 22.881,130.078 23.105 C 129.434 23.330,128.906 23.683,128.906 23.889 C 128.906 24.096,128.723 24.151,128.498 24.013 C 128.274 23.874,127.665 24.040,127.145 24.380 C 126.625 24.721,125.930 25.000,125.600 25.000 C 125.270 25.000,125.000 25.138,125.000 25.307 C 125.000 25.477,124.608 25.645,124.129 25.681 C 123.649 25.717,123.061 26.015,122.820 26.344 C 122.580 26.672,122.296 26.854,122.189 26.747 C 121.981 26.538,119.075 27.657,118.750 28.071 C 118.170 28.810,114.204 30.871,113.916 30.582 C 113.782 30.448,113.672 30.554,113.672 30.817 C 113.672 31.081,113.496 31.187,113.281 31.055 C 113.066 30.922,112.891 30.980,112.891 31.183 C 112.891 31.387,112.306 31.663,111.592 31.797 C 110.878 31.931,109.918 32.390,109.460 32.817 C 109.001 33.244,108.389 33.594,108.098 33.594 C 107.807 33.594,107.203 33.935,106.756 34.351 C 106.309 34.768,105.836 35.003,105.706 34.872 C 105.575 34.742,105.469 34.851,105.469 35.114 C 105.469 35.378,105.293 35.484,105.078 35.352 C 104.863 35.219,104.688 35.277,104.688 35.481 C 104.688 35.686,104.241 35.965,103.695 36.102 C 103.149 36.239,102.808 36.522,102.937 36.730 C 103.066 36.939,102.804 37.109,102.355 37.109 C 101.905 37.109,101.437 37.373,101.313 37.695 C 101.189 38.018,100.756 38.281,100.349 38.281 C 99.942 38.281,99.609 38.457,99.609 38.672 C 99.609 38.887,99.478 39.035,99.316 39.000 C 98.742 38.879,97.664 39.541,97.877 39.885 C 97.996 40.077,97.758 40.234,97.349 40.234 C 96.940 40.234,96.291 40.582,95.907 41.006 C 95.522 41.431,95.090 41.706,94.946 41.617 C 94.803 41.528,94.058 42.015,93.293 42.700 C 92.527 43.385,91.658 43.999,91.361 44.064 C 91.063 44.130,90.601 44.471,90.332 44.823 C 90.063 45.174,89.844 45.331,89.844 45.172 C 89.844 45.012,89.404 45.356,88.867 45.935 C 88.330 46.515,87.891 46.869,87.891 46.723 C 87.891 46.577,87.534 46.648,87.098 46.881 C 86.663 47.114,86.409 47.472,86.536 47.676 C 86.662 47.880,86.579 48.069,86.351 48.096 C 86.124 48.123,85.792 48.167,85.614 48.193 C 84.917 48.299,82.884 50.190,83.097 50.535 C 83.222 50.737,83.163 50.802,82.966 50.681 C 82.770 50.559,82.269 50.708,81.855 51.011 C 81.440 51.314,81.266 51.567,81.468 51.571 C 81.671 51.576,81.265 51.862,80.566 52.206 C 79.868 52.550,79.297 53.084,79.297 53.392 C 79.297 53.700,79.137 53.854,78.942 53.733 C 78.747 53.612,78.143 54.041,77.600 54.686 C 77.057 55.332,76.446 55.859,76.243 55.859 C 76.039 55.859,75.236 56.563,74.460 57.423 C 73.683 58.283,73.046 58.854,73.046 58.693 C 73.045 58.531,72.498 59.014,71.829 59.766 C 71.160 60.518,70.753 60.869,70.924 60.547 C 71.095 60.225,70.654 60.521,69.943 61.207 C 69.232 61.892,68.453 62.839,68.212 63.311 C 67.971 63.784,67.606 64.133,67.402 64.087 C 67.198 64.042,66.892 64.380,66.722 64.840 C 66.537 65.339,66.230 65.562,65.959 65.394 C 65.694 65.231,65.609 65.283,65.756 65.520 C 65.894 65.744,65.745 66.144,65.425 66.410 C 65.105 66.675,64.831 66.739,64.816 66.552 C 64.801 66.364,64.662 66.532,64.508 66.923 C 64.354 67.315,64.058 67.661,63.852 67.692 C 63.360 67.766,61.719 69.543,61.719 70.002 C 61.719 70.198,61.543 70.250,61.328 70.117 C 61.113 69.984,60.938 70.179,60.937 70.550 C 60.937 70.921,60.826 71.113,60.690 70.977 C 60.405 70.691,58.740 72.686,58.887 73.137 C 58.940 73.302,58.763 73.437,58.492 73.437 C 57.912 73.437,56.063 75.575,56.037 76.275 C 56.027 76.540,55.807 76.714,55.549 76.660 C 55.290 76.606,55.078 76.820,55.078 77.135 C 55.078 77.449,54.722 77.898,54.286 78.131 C 53.850 78.364,53.589 78.709,53.706 78.898 C 53.822 79.086,53.563 79.353,53.131 79.490 C 52.698 79.628,52.344 80.080,52.344 80.495 C 52.344 80.939,52.076 81.250,51.693 81.250 C 51.335 81.250,51.136 81.344,51.251 81.459 C 51.366 81.574,50.955 82.208,50.339 82.868 C 49.723 83.527,49.219 84.312,49.219 84.612 C 49.219 84.911,48.926 85.156,48.568 85.156 C 48.210 85.156,48.031 85.270,48.170 85.410 C 48.309 85.549,48.109 85.944,47.725 86.288 C 47.341 86.633,46.798 87.479,46.519 88.170 C 46.239 88.860,45.897 89.388,45.759 89.342 C 45.621 89.296,45.508 89.402,45.508 89.578 C 45.508 89.755,45.200 90.071,44.824 90.281 C 44.448 90.492,44.141 90.919,44.141 91.230 C 44.141 91.542,43.997 91.797,43.822 91.797 C 43.647 91.797,43.110 92.497,42.629 93.353 C 42.148 94.208,41.544 95.134,41.287 95.409 C 41.030 95.685,40.489 96.559,40.085 97.351 C 39.680 98.144,39.021 99.144,38.620 99.575 C 38.219 100.006,37.891 100.517,37.891 100.712 C 37.891 100.907,37.498 101.565,37.019 102.175 C 36.539 102.784,36.408 103.131,36.726 102.946 C 37.044 102.760,36.908 103.045,36.422 103.579 C 35.937 104.113,35.659 104.669,35.804 104.814 C 35.949 104.959,35.883 105.078,35.656 105.078 C 35.430 105.078,34.953 105.649,34.597 106.348 C 34.240 107.046,33.517 108.392,32.990 109.339 C 32.463 110.286,32.031 111.296,32.031 111.585 C 32.031 111.873,31.826 112.109,31.576 112.109 C 31.325 112.109,31.229 112.218,31.362 112.351 C 31.495 112.484,31.347 112.850,31.032 113.164 C 30.718 113.478,30.561 113.896,30.684 114.094 C 30.806 114.292,30.709 114.453,30.469 114.453 C 30.229 114.453,30.141 114.629,30.273 114.844 C 30.406 115.059,30.318 115.234,30.078 115.234 C 29.838 115.234,29.741 115.396,29.863 115.594 C 29.985 115.791,29.828 116.210,29.514 116.524 C 29.200 116.838,29.052 117.203,29.185 117.336 C 29.318 117.469,29.212 117.578,28.948 117.578 C 28.685 117.578,28.565 117.733,28.683 117.923 C 28.800 118.112,28.539 118.721,28.102 119.276 C 27.666 119.831,27.309 120.376,27.309 120.487 C 27.310 120.598,27.054 121.302,26.741 122.051 C 26.428 122.800,26.172 123.594,26.172 123.816 C 26.172 124.037,26.003 124.219,25.797 124.219 C 25.591 124.219,25.209 124.966,24.948 125.879 C 24.688 126.792,24.241 127.817,23.955 128.157 C 23.670 128.496,23.563 128.901,23.718 129.057 C 23.874 129.212,23.821 129.462,23.601 129.611 C 23.202 129.883,21.921 133.132,21.492 134.961 C 21.442 135.176,21.064 136.011,20.653 136.816 C 20.242 137.622,20.019 138.281,20.157 138.281 C 20.295 138.281,20.167 138.579,19.872 138.942 C 19.410 139.512,19.417 139.557,19.922 139.266 C 20.339 139.026,20.310 139.154,19.823 139.711 C 19.447 140.141,19.240 140.594,19.364 140.718 C 19.488 140.842,19.329 141.445,19.012 142.058 C 18.695 142.671,18.350 143.718,18.245 144.384 C 18.140 145.050,17.869 145.941,17.643 146.363 C 17.417 146.785,17.174 147.556,17.102 148.077 C 17.031 148.598,16.835 149.242,16.668 149.509 C 16.500 149.776,16.274 150.733,16.166 151.636 C 16.057 152.538,15.851 153.463,15.708 153.689 C 15.566 153.916,15.499 154.402,15.559 154.770 C 15.619 155.137,15.443 155.840,15.166 156.332 C 14.635 157.277,14.443 158.106,14.348 159.863 C 14.317 160.454,14.169 160.938,14.020 160.938 C 13.872 160.938,13.750 161.541,13.750 162.278 C 13.750 163.015,13.545 164.240,13.295 164.999 C 13.044 165.758,12.827 166.956,12.813 167.662 C 12.799 168.368,12.684 169.121,12.559 169.336 C 12.433 169.551,12.278 170.342,12.215 171.094 C 12.151 171.846,12.057 172.944,12.006 173.535 C 11.956 174.126,11.820 174.609,11.705 174.609 C 11.590 174.609,11.480 174.917,11.460 175.293 C 11.441 175.669,11.306 177.295,11.159 178.906 C 11.013 180.518,10.841 182.646,10.778 183.636 C 10.714 184.626,10.573 185.592,10.463 185.784 C 10.028 186.548,9.943 204.743,10.349 210.156 C 10.502 212.197,10.668 214.834,10.718 216.016 C 10.767 217.197,10.847 218.252,10.894 218.359 C 10.941 218.467,11.051 219.258,11.137 220.117 C 11.223 220.977,11.391 222.471,11.511 223.438 C 11.709 225.036,11.833 225.963,12.242 228.906 C 12.317 229.443,12.421 229.971,12.474 230.078 C 12.527 230.186,12.609 230.983,12.656 231.849 C 12.702 232.716,12.858 233.616,13.002 233.849 C 13.146 234.082,13.377 235.219,13.514 236.375 C 13.652 237.531,13.933 238.798,14.139 239.191 C 14.345 239.583,14.417 240.155,14.300 240.460 C 14.183 240.766,14.269 241.016,14.492 241.016 C 14.715 241.016,14.788 241.357,14.654 241.779 C 14.513 242.224,14.706 242.992,15.116 243.619 C 15.651 244.438,15.680 244.612,15.234 244.344 C 14.748 244.050,14.731 244.092,15.133 244.590 C 15.400 244.919,15.503 245.305,15.361 245.446 C 15.220 245.587,15.298 245.703,15.536 245.703 C 15.773 245.703,15.975 246.011,15.985 246.387 C 16.024 247.862,16.390 250.048,16.674 250.500 C 16.838 250.762,17.031 251.402,17.102 251.923 C 17.174 252.444,17.417 253.215,17.643 253.637 C 17.869 254.059,18.140 254.952,18.245 255.620 C 18.351 256.289,18.630 257.188,18.867 257.617 C 19.104 258.047,19.354 258.736,19.422 259.149 C 19.491 259.562,19.725 260.115,19.943 260.377 C 20.161 260.640,20.293 261.006,20.236 261.189 C 20.180 261.373,20.467 262.314,20.876 263.281 C 21.284 264.248,21.580 265.259,21.534 265.527 C 21.488 265.796,21.644 266.016,21.881 266.016 C 22.118 266.016,22.203 266.191,22.071 266.405 C 21.938 266.620,22.090 267.279,22.408 267.870 C 23.023 269.015,23.489 270.186,23.660 271.016 C 23.718 271.296,24.043 271.949,24.382 272.468 C 24.722 272.986,25.000 273.746,25.000 274.157 C 25.000 274.568,25.253 275.114,25.563 275.371 C 25.872 275.628,26.030 276.088,25.913 276.392 C 25.796 276.697,25.953 277.043,26.262 277.162 C 26.570 277.280,26.823 277.599,26.823 277.869 C 26.823 278.139,27.325 279.406,27.939 280.684 C 28.553 281.962,29.097 283.243,29.147 283.530 C 29.197 283.818,29.499 284.345,29.817 284.702 C 30.136 285.059,30.718 286.099,31.111 287.012 C 31.504 287.925,31.959 288.672,32.123 288.672 C 32.288 288.672,32.422 289.002,32.422 289.405 C 32.422 289.809,32.686 290.358,33.008 290.625 C 33.330 290.892,33.594 291.452,33.594 291.868 C 33.594 292.284,33.770 292.516,33.984 292.383 C 34.199 292.250,34.375 292.503,34.375 292.946 C 34.375 293.388,34.551 293.750,34.766 293.750 C 34.980 293.750,35.117 293.882,35.069 294.043 C 34.971 294.374,36.318 296.547,36.857 296.929 C 37.051 297.066,37.072 297.401,36.904 297.673 C 36.705 297.995,36.755 298.070,37.049 297.889 C 37.316 297.724,37.500 297.858,37.500 298.219 C 37.500 298.554,37.686 298.828,37.914 298.828 C 38.141 298.828,38.230 298.986,38.111 299.178 C 37.992 299.371,38.588 300.368,39.436 301.395 C 40.284 302.421,40.892 303.399,40.787 303.569 C 40.682 303.739,40.997 304.279,41.488 304.769 C 41.978 305.259,42.327 305.883,42.265 306.155 C 42.202 306.428,42.429 306.758,42.770 306.889 C 43.110 307.019,43.646 307.625,43.962 308.234 C 44.277 308.844,44.983 309.791,45.531 310.339 C 46.078 310.887,46.439 311.476,46.332 311.649 C 46.226 311.821,46.744 312.643,47.483 313.474 C 48.223 314.305,48.828 315.140,48.828 315.328 C 48.828 315.517,48.985 315.574,49.177 315.455 C 49.369 315.337,49.638 315.685,49.774 316.230 C 49.925 316.828,50.197 317.112,50.462 316.948 C 50.737 316.778,50.793 316.853,50.611 317.147 C 50.431 317.439,51.057 318.356,52.252 319.551 C 53.315 320.615,54.089 321.484,53.971 321.484 C 53.853 321.484,54.098 321.734,54.515 322.039 C 54.932 322.344,55.281 322.827,55.291 323.113 C 55.301 323.399,55.521 323.589,55.779 323.535 C 56.038 323.481,56.250 323.691,56.250 324.001 C 56.250 324.311,56.569 324.795,56.959 325.076 C 57.349 325.356,57.783 325.894,57.924 326.270 C 58.064 326.646,58.448 326.953,58.777 326.953 C 59.106 326.953,59.378 327.173,59.382 327.441 C 59.385 327.710,59.825 328.344,60.358 328.850 C 60.892 329.356,61.328 329.937,61.328 330.142 C 61.328 330.347,61.504 330.406,61.719 330.273 C 61.934 330.141,62.109 330.210,62.109 330.428 C 62.109 330.646,62.549 331.263,63.086 331.800 C 63.623 332.338,64.063 332.692,64.063 332.588 C 64.063 332.485,64.653 332.976,65.375 333.680 C 66.096 334.385,66.613 335.093,66.523 335.254 C 66.434 335.415,66.634 335.547,66.969 335.547 C 67.304 335.547,67.578 335.708,67.578 335.906 C 67.578 336.103,68.281 336.996,69.141 337.891 C 70.000 338.785,70.703 339.380,70.703 339.213 C 70.703 339.046,71.342 339.603,72.123 340.451 C 72.904 341.299,73.695 341.948,73.881 341.895 C 74.067 341.841,74.219 342.071,74.219 342.406 C 74.219 342.741,74.361 342.927,74.534 342.820 C 74.708 342.713,75.172 343.054,75.566 343.578 C 75.959 344.102,76.519 344.531,76.809 344.531 C 77.100 344.531,77.557 344.883,77.825 345.312 C 78.093 345.742,78.492 346.094,78.711 346.094 C 78.930 346.094,79.635 346.705,80.277 347.452 C 80.920 348.200,81.665 348.815,81.934 348.820 C 82.202 348.824,82.422 349.033,82.422 349.284 C 82.422 349.535,82.514 349.647,82.628 349.534 C 82.741 349.421,83.478 349.919,84.267 350.641 C 85.055 351.362,85.929 351.953,86.209 351.953 C 86.489 351.953,86.719 352.115,86.719 352.312 C 86.719 352.510,87.949 353.567,89.453 354.661 C 90.957 355.754,92.188 356.526,92.188 356.375 C 92.188 356.224,92.464 356.442,92.802 356.859 C 93.141 357.276,93.298 357.384,93.152 357.100 C 92.934 356.676,93.030 356.672,93.684 357.081 C 94.122 357.354,94.414 357.687,94.332 357.819 C 94.250 357.951,94.701 358.366,95.334 358.739 C 95.967 359.113,96.484 359.302,96.484 359.158 C 96.484 359.015,96.792 359.278,97.168 359.743 C 97.768 360.483,98.475 360.799,99.772 360.908 C 99.969 360.924,100.021 361.047,99.887 361.181 C 99.510 361.557,102.875 363.694,103.751 363.635 C 103.875 363.627,104.238 363.939,104.557 364.329 C 104.904 364.755,105.035 364.805,104.883 364.453 C 104.744 364.131,104.906 364.208,105.244 364.625 C 105.583 365.042,105.859 365.262,105.859 365.114 C 105.859 364.965,106.225 365.209,106.671 365.655 C 107.117 366.102,107.728 366.372,108.028 366.257 C 108.328 366.142,108.710 366.287,108.876 366.580 C 109.281 367.290,112.893 369.185,113.328 368.916 C 113.517 368.799,113.672 368.900,113.672 369.141 C 113.672 369.381,113.848 369.469,114.063 369.336 C 114.277 369.203,114.453 369.291,114.453 369.531 C 114.453 369.771,114.629 369.859,114.844 369.727 C 115.059 369.594,115.234 369.682,115.234 369.922 C 115.234 370.162,115.392 370.261,115.584 370.142 C 115.776 370.024,116.042 370.207,116.173 370.551 C 116.310 370.906,116.663 371.079,116.995 370.951 C 117.316 370.828,117.578 370.877,117.578 371.059 C 117.578 371.383,119.669 372.399,120.114 372.292 C 120.239 372.262,120.620 372.518,120.963 372.860 C 121.305 373.202,121.835 373.386,122.141 373.269 C 122.449 373.151,122.590 373.228,122.458 373.442 C 122.250 373.778,123.047 374.013,123.926 373.874 C 124.087 373.849,124.219 374.023,124.219 374.261 C 124.219 374.498,124.482 374.592,124.805 374.468 C 125.127 374.344,125.391 374.381,125.391 374.549 C 125.391 375.001,128.118 376.222,128.542 375.960 C 128.743 375.836,128.906 375.940,128.906 376.191 C 128.906 376.442,129.178 376.542,129.512 376.413 C 129.860 376.280,130.017 376.346,129.880 376.567 C 129.662 376.920,130.288 377.105,131.543 377.058 C 131.812 377.048,132.031 377.225,132.031 377.452 C 132.031 377.679,132.140 377.756,132.273 377.623 C 132.406 377.490,132.763 377.629,133.066 377.932 C 133.369 378.235,133.857 378.390,134.151 378.277 C 134.446 378.164,134.804 378.262,134.948 378.495 C 135.092 378.728,135.374 378.818,135.574 378.694 C 135.774 378.571,135.938 378.648,135.938 378.865 C 135.938 379.083,136.597 379.393,137.402 379.555 C 138.208 379.716,138.955 379.866,139.063 379.889 C 139.170 379.912,139.961 380.239,140.820 380.617 C 141.680 380.994,142.734 381.322,143.164 381.346 C 143.594 381.369,144.165 381.554,144.434 381.758 C 144.702 381.961,144.922 381.996,144.922 381.836 C 144.922 381.676,145.147 381.732,145.422 381.960 C 145.698 382.189,146.357 382.458,146.887 382.558 C 147.418 382.658,148.365 382.940,148.993 383.183 C 149.621 383.427,150.357 383.540,150.628 383.436 C 150.899 383.332,151.177 383.411,151.244 383.612 C 151.312 383.813,151.938 384.067,152.637 384.176 C 153.335 384.286,154.440 384.460,155.093 384.564 C 155.745 384.669,156.596 384.923,156.983 385.130 C 157.370 385.337,158.094 385.400,158.592 385.270 C 159.272 385.092,159.419 385.160,159.183 385.542 C 158.942 385.931,159.107 385.991,159.879 385.798 C 160.461 385.652,161.001 385.725,161.153 385.970 C 161.298 386.204,161.748 386.309,162.153 386.203 C 162.559 386.097,162.891 386.181,162.891 386.389 C 162.891 386.597,163.198 386.737,163.574 386.698 C 163.950 386.660,164.346 386.666,164.453 386.713 C 164.561 386.759,165.088 386.867,165.625 386.954 C 166.162 387.041,167.129 387.201,167.773 387.311 C 168.418 387.420,169.561 387.551,170.313 387.602 C 171.064 387.653,171.768 387.802,171.875 387.933 C 171.982 388.064,173.652 388.285,175.586 388.424 C 177.520 388.564,179.541 388.781,180.078 388.907 C 181.212 389.174,184.808 389.437,189.261 389.580 C 190.981 389.635,192.567 389.791,192.785 389.926 C 193.280 390.232,206.696 390.223,207.214 389.916 C 207.422 389.793,209.092 389.630,210.925 389.553 C 215.419 389.365,218.123 389.193,218.359 389.081 C 218.467 389.030,219.873 388.924,221.484 388.844 C 223.096 388.765,224.854 388.577,225.391 388.427 C 225.928 388.277,226.605 388.194,226.896 388.244 C 227.186 388.293,227.714 388.203,228.068 388.042 C 228.766 387.726,229.009 387.679,231.641 387.365 C 232.607 387.249,233.838 387.040,234.375 386.900 C 234.912 386.760,235.666 386.652,236.051 386.659 C 236.436 386.667,237.403 386.445,238.200 386.166 C 238.997 385.887,239.957 385.707,240.334 385.764 C 240.734 385.825,240.913 385.697,240.764 385.456 C 240.596 385.184,240.852 385.129,241.511 385.294 C 242.062 385.432,242.572 385.385,242.643 385.189 C 242.715 384.992,243.564 384.736,244.531 384.619 C 247.034 384.315,248.292 384.037,250.759 383.242 C 254.483 382.041,256.434 381.496,256.738 381.570 C 256.899 381.609,257.031 381.454,257.031 381.227 C 257.031 380.999,257.188 380.910,257.380 381.029 C 257.572 381.148,258.403 380.964,259.225 380.620 C 260.048 380.276,261.149 379.917,261.671 379.823 C 262.193 379.728,262.989 379.447,263.439 379.199 C 263.889 378.950,264.434 378.722,264.648 378.691 C 264.863 378.660,265.171 378.586,265.332 378.526 C 265.493 378.467,265.757 378.387,265.918 378.350 C 267.041 378.089,267.969 377.628,267.969 377.330 C 267.969 377.136,268.204 377.068,268.492 377.178 C 268.780 377.289,269.232 377.118,269.497 376.799 C 269.762 376.480,270.207 376.306,270.486 376.413 C 270.765 376.520,271.235 376.378,271.532 376.097 C 271.828 375.816,272.510 375.539,273.047 375.481 C 273.584 375.423,274.223 375.109,274.468 374.783 C 274.712 374.456,275.064 374.225,275.249 374.268 C 275.992 374.442,277.714 373.720,277.476 373.335 C 277.335 373.107,277.409 373.041,277.645 373.187 C 278.140 373.493,280.078 372.691,280.078 372.180 C 280.078 371.987,280.233 371.924,280.421 372.041 C 280.869 372.318,283.203 371.152,283.203 370.651 C 283.203 370.440,283.363 370.365,283.558 370.486 C 284.060 370.796,285.196 370.302,284.938 369.885 C 284.821 369.696,284.996 369.644,285.328 369.772 C 285.683 369.908,286.030 369.746,286.170 369.379 C 286.302 369.035,286.553 368.843,286.728 368.951 C 286.903 369.059,287.324 368.870,287.664 368.530 C 288.003 368.191,288.281 368.025,288.281 368.161 C 288.281 368.298,288.984 368.014,289.844 367.531 C 290.703 367.048,291.406 366.499,291.406 366.311 C 291.406 366.123,291.583 366.079,291.800 366.213 C 292.016 366.346,292.675 366.131,293.264 365.733 C 293.854 365.336,294.816 364.769,295.404 364.474 C 295.991 364.179,296.826 363.607,297.259 363.204 C 297.692 362.800,298.047 362.574,298.047 362.702 C 298.047 362.830,298.565 362.629,299.198 362.255 C 299.830 361.881,300.261 361.434,300.154 361.261 C 300.047 361.088,300.197 361.038,300.487 361.149 C 300.777 361.260,301.432 360.907,301.942 360.363 C 302.453 359.820,303.109 359.375,303.401 359.375 C 303.692 359.375,304.032 359.112,304.155 358.791 C 304.278 358.470,304.515 358.292,304.683 358.395 C 304.986 358.583,307.111 357.117,307.357 356.550 C 307.428 356.385,307.742 356.250,308.053 356.250 C 308.364 356.250,308.719 355.986,308.843 355.664 C 308.967 355.342,309.357 355.077,309.710 355.076 C 310.063 355.075,310.976 354.504,311.740 353.807 C 312.504 353.110,313.866 352.032,314.767 351.412 C 315.669 350.792,316.406 350.132,316.406 349.947 C 316.406 349.761,316.651 349.609,316.950 349.609 C 317.250 349.609,317.600 349.335,317.729 348.999 C 317.858 348.663,318.140 348.497,318.357 348.631 C 318.573 348.765,318.750 348.600,318.750 348.265 C 318.750 347.930,319.014 347.656,319.336 347.656 C 319.658 347.656,319.922 347.480,319.922 347.266 C 319.922 347.051,320.196 346.875,320.531 346.875 C 320.866 346.875,321.031 346.699,320.898 346.484 C 320.766 346.270,320.930 346.094,321.263 346.094 C 321.596 346.094,322.088 345.742,322.356 345.312 C 322.625 344.883,323.059 344.531,323.322 344.531 C 323.585 344.531,323.989 344.180,324.219 343.750 C 324.449 343.320,324.898 342.969,325.217 342.969 C 325.537 342.969,325.998 342.529,326.243 341.992 C 326.488 341.455,326.916 341.016,327.194 341.016 C 327.473 341.016,328.192 340.400,328.792 339.648 C 329.392 338.897,330.059 338.279,330.273 338.277 C 330.820 338.271,333.203 335.760,333.203 335.189 C 333.203 334.931,333.379 334.828,333.594 334.961 C 333.809 335.094,333.984 334.918,333.984 334.570 C 333.984 334.223,334.140 334.035,334.331 334.152 C 334.521 334.270,334.917 334.071,335.210 333.710 C 335.668 333.145,335.660 333.100,335.156 333.386 C 334.807 333.585,334.702 333.575,334.896 333.363 C 335.075 333.168,335.367 333.008,335.545 333.008 C 335.722 333.008,336.631 332.226,337.563 331.270 C 338.495 330.314,338.994 329.673,338.672 329.845 C 338.350 330.017,338.657 329.687,339.355 329.113 C 340.054 328.538,340.625 327.817,340.625 327.511 C 340.625 327.204,340.889 326.953,341.211 326.953 C 341.533 326.953,341.797 326.757,341.797 326.517 C 341.797 326.277,342.458 325.442,343.265 324.662 C 344.073 323.881,345.240 322.495,345.858 321.582 C 346.476 320.669,347.133 319.922,347.319 319.922 C 347.746 319.922,350.620 315.946,350.488 315.537 C 350.435 315.371,350.635 315.234,350.934 315.234 C 351.233 315.234,351.590 314.788,351.727 314.242 C 351.864 313.696,352.147 313.355,352.355 313.484 C 352.564 313.613,352.756 313.532,352.783 313.304 C 352.810 313.077,352.862 312.671,352.899 312.402 C 352.935 312.134,353.190 311.962,353.465 312.021 C 353.740 312.080,353.867 311.971,353.747 311.778 C 353.628 311.584,353.966 310.956,354.500 310.381 C 355.033 309.805,355.469 309.168,355.469 308.964 C 355.469 308.760,355.655 308.594,355.882 308.594 C 356.110 308.594,356.201 308.439,356.084 308.250 C 355.967 308.061,356.309 307.469,356.845 306.934 C 358.009 305.769,359.964 302.956,359.341 303.341 C 359.100 303.490,359.205 303.151,359.575 302.587 C 359.944 302.024,360.402 301.563,360.592 301.563 C 360.782 301.563,360.938 301.379,360.938 301.156 C 360.938 300.932,361.280 300.381,361.699 299.931 C 362.118 299.481,362.572 298.608,362.708 297.991 C 362.843 297.373,363.116 296.968,363.313 297.090 C 363.510 297.212,363.672 296.950,363.672 296.507 C 363.672 296.065,363.858 295.703,364.086 295.703 C 364.313 295.703,364.397 295.538,364.273 295.337 C 364.148 295.135,364.273 294.827,364.551 294.653 C 365.033 294.350,365.959 292.607,365.865 292.178 C 365.840 292.066,366.216 291.549,366.699 291.030 C 367.183 290.512,367.578 289.871,367.578 289.607 C 367.578 289.343,367.781 289.060,368.028 288.978 C 368.276 288.895,368.506 288.447,368.541 287.983 C 368.575 287.518,368.927 286.780,369.323 286.342 C 369.719 285.905,369.906 285.547,369.739 285.547 C 369.572 285.547,369.669 285.265,369.955 284.922 C 370.240 284.578,370.511 284.041,370.557 283.729 C 370.603 283.417,370.962 282.688,371.355 282.109 C 371.748 281.529,372.083 280.879,372.098 280.664 C 372.114 280.449,372.670 279.175,373.334 277.832 C 373.999 276.489,374.442 275.391,374.320 275.391 C 374.198 275.391,374.406 275.050,374.782 274.634 C 375.159 274.218,375.352 273.690,375.211 273.462 C 375.069 273.234,375.150 273.047,375.391 273.047 C 375.631 273.047,375.726 272.883,375.603 272.683 C 375.479 272.483,375.557 272.209,375.775 272.074 C 375.993 271.939,376.172 271.389,376.172 270.852 C 376.172 270.301,376.342 269.981,376.563 270.117 C 376.919 270.337,377.104 269.719,377.059 268.461 C 377.049 268.195,377.179 268.062,377.346 268.166 C 377.650 268.353,378.228 266.772,378.288 265.587 C 378.306 265.244,378.562 264.673,378.856 264.318 C 379.151 263.963,379.262 263.672,379.102 263.672 C 378.942 263.672,378.988 263.452,379.204 263.184 C 379.420 262.915,379.726 262.080,379.883 261.328 C 380.040 260.576,380.339 259.749,380.547 259.490 C 380.756 259.231,380.823 258.850,380.695 258.644 C 380.568 258.438,380.639 258.211,380.854 258.139 C 381.068 258.067,381.316 257.480,381.405 256.836 C 381.705 254.669,382.130 253.110,382.479 252.895 C 382.669 252.777,382.724 252.517,382.601 252.317 C 382.477 252.117,382.572 251.953,382.813 251.953 C 383.053 251.953,383.135 251.769,382.996 251.543 C 382.856 251.317,383.022 250.542,383.365 249.821 C 383.707 249.099,383.887 248.247,383.764 247.927 C 383.641 247.607,383.731 247.227,383.964 247.083 C 384.197 246.939,384.287 246.657,384.163 246.457 C 384.039 246.257,384.145 246.094,384.397 246.094 C 384.677 246.094,384.784 245.711,384.670 245.117 C 384.567 244.580,384.645 244.141,384.843 244.141 C 385.041 244.141,385.089 243.957,384.950 243.733 C 384.812 243.509,384.865 243.113,385.069 242.854 C 385.273 242.595,385.459 242.119,385.481 241.797 C 385.503 241.475,385.623 240.596,385.747 239.844 C 385.871 239.092,386.002 238.169,386.038 237.793 C 386.074 237.417,386.220 237.109,386.362 237.109 C 386.611 237.109,386.730 236.196,386.785 233.887 C 386.799 233.296,386.941 232.813,387.101 232.813 C 387.261 232.812,387.340 232.334,387.276 231.748 C 387.212 231.163,387.338 230.468,387.558 230.204 C 387.777 229.940,388.030 228.705,388.119 227.459 C 388.209 226.214,388.375 224.580,388.488 223.828 C 388.601 223.076,388.760 221.582,388.842 220.508 C 388.923 219.434,389.027 218.555,389.073 218.555 C 389.156 218.555,389.281 216.510,389.557 210.647 C 389.641 208.876,389.783 207.352,389.874 207.262 C 390.079 207.057,389.936 193.052,389.688 189.063 C 389.444 185.142,388.882 179.115,388.523 176.563 C 388.417 175.811,388.275 174.448,388.208 173.535 C 388.141 172.623,387.986 171.875,387.863 171.875 C 387.740 171.875,387.671 171.260,387.708 170.508 C 387.746 169.756,387.653 169.141,387.503 169.141 C 387.353 169.141,387.256 168.657,387.288 168.066 C 387.319 167.476,387.008 165.674,386.595 164.063 C 386.183 162.451,385.784 160.605,385.710 159.961 C 385.635 159.316,385.413 158.139,385.215 157.344 C 385.018 156.549,384.968 155.774,385.104 155.621 C 385.240 155.468,385.132 155.470,384.863 155.624 C 384.552 155.804,384.364 155.650,384.345 155.199 C 384.329 154.810,384.231 154.141,384.128 153.711 C 384.026 153.281,383.843 152.227,383.723 151.367 C 383.603 150.508,383.268 149.344,382.979 148.780 C 382.690 148.216,382.558 147.651,382.686 147.523 C 382.814 147.395,382.633 146.854,382.284 146.322 C 381.935 145.789,381.747 145.098,381.867 144.787 C 381.987 144.475,381.894 144.102,381.661 143.958 C 381.428 143.814,381.338 143.532,381.462 143.332 C 381.586 143.132,381.501 142.969,381.273 142.969 C 381.046 142.969,380.859 142.518,380.859 141.967 C 380.859 141.415,380.648 140.580,380.389 140.111 C 380.130 139.642,379.862 138.874,379.793 138.404 C 379.724 137.935,379.409 137.056,379.094 136.451 C 378.779 135.846,378.519 134.946,378.518 134.450 C 378.516 133.861,378.357 133.646,378.059 133.830 C 377.753 134.019,377.683 133.901,377.847 133.474 C 377.982 133.123,377.880 132.610,377.620 132.336 C 377.361 132.061,377.103 131.422,377.048 130.916 C 376.993 130.410,376.597 129.504,376.169 128.902 C 375.741 128.301,375.391 127.472,375.391 127.060 C 375.391 126.648,374.869 125.233,374.231 123.916 C 373.593 122.600,372.959 121.074,372.821 120.527 C 372.684 119.979,372.453 119.531,372.307 119.531 C 371.884 119.531,370.699 117.322,370.974 117.047 C 371.111 116.909,371.009 116.797,370.745 116.797 C 370.482 116.797,370.375 116.621,370.508 116.406 C 370.641 116.191,370.544 116.016,370.294 116.016 C 370.043 116.016,369.943 115.744,370.071 115.409 C 370.199 115.076,370.149 114.899,369.959 115.016 C 369.669 115.195,369.180 114.033,369.106 112.990 C 369.094 112.828,368.807 112.388,368.466 112.012 C 368.126 111.636,367.975 111.328,368.130 111.328 C 368.285 111.328,368.049 110.818,367.605 110.194 C 367.160 109.570,366.797 108.856,366.797 108.608 C 366.797 108.360,366.621 108.266,366.406 108.398 C 366.052 108.617,365.844 108.095,365.974 107.312 C 366.001 107.144,365.598 106.547,365.077 105.985 C 364.557 105.424,364.222 104.726,364.334 104.435 C 364.445 104.144,364.386 103.904,364.202 103.900 C 364.018 103.897,363.429 103.001,362.893 101.910 C 362.357 100.818,361.610 99.760,361.233 99.558 C 360.855 99.356,360.547 98.846,360.547 98.424 C 360.547 98.002,360.371 97.656,360.156 97.656 C 359.941 97.656,359.766 97.382,359.766 97.047 C 359.766 96.712,359.595 96.544,359.386 96.673 C 359.178 96.801,358.887 96.416,358.740 95.817 C 358.593 95.217,358.060 94.339,357.556 93.866 C 357.053 93.393,356.641 92.760,356.641 92.459 C 356.641 92.157,356.158 91.402,355.567 90.780 C 354.977 90.158,353.772 88.563,352.890 87.237 C 352.008 85.910,350.997 84.535,350.643 84.181 C 350.290 83.827,350.000 83.364,350.000 83.152 C 350.000 82.940,349.780 82.893,349.512 83.047 C 349.243 83.202,349.149 83.189,349.303 83.019 C 349.692 82.588,348.914 81.250,348.273 81.250 C 347.983 81.250,347.462 80.679,347.116 79.980 C 346.340 78.413,345.717 77.667,344.718 77.106 C 344.293 76.868,343.940 76.516,343.933 76.325 C 343.923 76.019,343.116 75.074,340.302 72.070 C 339.899 71.641,339.359 70.889,339.101 70.399 C 338.843 69.910,338.466 69.613,338.262 69.739 C 338.058 69.865,337.891 69.733,337.891 69.446 C 337.891 68.897,336.551 67.578,335.994 67.578 C 335.572 67.578,334.439 66.326,334.403 65.820 C 334.388 65.605,334.243 65.427,334.082 65.424 C 333.438 65.411,332.815 64.765,333.062 64.366 C 333.223 64.104,333.141 64.055,332.847 64.237 C 332.543 64.424,332.291 64.233,332.155 63.711 C 332.037 63.260,331.687 62.891,331.377 62.891 C 331.067 62.891,330.922 62.715,331.055 62.500 C 331.187 62.285,331.032 62.109,330.710 62.109 C 330.388 62.109,329.999 61.906,329.846 61.658 C 329.664 61.364,329.757 61.302,330.115 61.481 C 330.417 61.632,330.231 61.439,329.702 61.053 C 329.173 60.667,328.399 59.962,327.983 59.486 C 327.567 59.010,327.077 58.713,326.894 58.825 C 326.712 58.938,326.563 58.756,326.563 58.421 C 326.563 58.087,326.411 57.813,326.227 57.813 C 326.042 57.813,325.271 57.241,324.515 56.543 C 322.284 54.485,321.306 53.720,321.020 53.808 C 320.872 53.853,320.640 53.542,320.505 53.117 C 320.370 52.692,320.096 52.322,319.896 52.295 C 319.695 52.268,319.312 52.216,319.043 52.180 C 318.774 52.143,318.593 51.919,318.639 51.681 C 318.686 51.444,318.283 51.139,317.744 51.004 C 317.206 50.869,316.858 50.608,316.971 50.425 C 317.085 50.241,316.652 49.873,316.011 49.607 C 315.369 49.341,314.838 48.926,314.831 48.683 C 314.825 48.441,314.356 47.905,313.791 47.492 C 313.151 47.025,312.883 46.951,313.082 47.297 C 313.273 47.628,313.102 47.577,312.658 47.170 C 311.020 45.669,309.374 44.480,309.363 44.789 C 309.357 44.970,309.170 44.806,308.948 44.425 C 308.727 44.045,308.354 43.852,308.119 43.997 C 307.862 44.156,307.803 44.081,307.972 43.808 C 308.134 43.545,307.954 43.241,307.544 43.087 C 307.155 42.940,306.150 42.326,305.312 41.722 C 304.475 41.119,303.560 40.625,303.281 40.625 C 303.002 40.625,302.633 40.376,302.461 40.071 C 302.289 39.766,301.905 39.458,301.607 39.387 C 301.310 39.316,300.612 38.850,300.056 38.352 C 299.501 37.854,298.569 37.351,297.986 37.234 C 297.402 37.117,296.831 36.778,296.717 36.480 C 296.603 36.181,296.315 35.938,296.078 35.938 C 295.841 35.938,295.382 35.672,295.058 35.348 C 294.734 35.024,294.307 34.858,294.109 34.980 C 293.912 35.102,293.750 35.036,293.750 34.832 C 293.750 34.518,291.312 33.171,290.039 32.781 C 289.824 32.715,289.303 32.339,288.881 31.946 C 288.459 31.553,287.887 31.318,287.611 31.423 C 287.335 31.529,287.109 31.459,287.109 31.268 C 287.109 31.077,286.512 30.723,285.782 30.482 C 285.052 30.241,284.059 29.700,283.574 29.280 C 283.089 28.860,282.379 28.516,281.995 28.516 C 281.610 28.516,281.186 28.337,281.051 28.119 C 280.677 27.514,278.096 26.534,277.633 26.821 C 277.394 26.968,277.339 26.886,277.502 26.623 C 277.749 26.223,277.034 25.974,276.074 26.126 C 275.913 26.151,275.781 25.967,275.781 25.716 C 275.781 25.465,275.672 25.369,275.539 25.502 C 275.406 25.635,275.049 25.496,274.746 25.192 C 274.442 24.888,273.545 24.518,272.751 24.369 C 271.958 24.221,271.062 23.852,270.760 23.550 C 270.459 23.249,269.971 23.094,269.676 23.207 C 269.382 23.320,269.141 23.243,269.141 23.035 C 269.141 22.827,269.009 22.694,268.848 22.739 C 268.687 22.785,268.156 22.601,267.668 22.331 C 267.180 22.060,266.624 21.936,266.432 22.055 C 266.239 22.173,266.021 22.086,265.946 21.860 C 265.870 21.634,265.416 21.420,264.936 21.384 C 264.455 21.348,264.063 21.150,264.063 20.946 C 264.063 20.741,263.962 20.673,263.840 20.796 C 263.717 20.918,263.158 20.781,262.598 20.490 C 262.038 20.200,261.435 20.051,261.258 20.160 C 261.082 20.269,260.938 20.161,260.938 19.919 C 260.938 19.656,260.622 19.579,260.156 19.727 C 259.708 19.869,259.375 19.797,259.375 19.558 C 259.375 19.328,259.243 19.161,259.082 19.187 C 258.921 19.212,258.701 19.199,258.594 19.158 C 258.486 19.116,257.973 19.004,257.453 18.909 C 256.932 18.813,256.306 18.568,256.061 18.364 C 255.815 18.161,254.955 17.912,254.149 17.812 C 253.342 17.712,252.474 17.468,252.220 17.270 C 251.966 17.072,250.879 16.692,249.805 16.427 C 248.730 16.161,247.500 15.848,247.070 15.732 C 246.641 15.615,245.454 15.438,244.434 15.339 C 243.413 15.240,242.578 14.981,242.578 14.764 C 242.578 14.547,242.320 14.469,242.005 14.590 C 241.689 14.711,241.335 14.653,241.217 14.462 C 241.099 14.271,240.514 14.129,239.918 14.146 C 239.322 14.163,238.490 13.998,238.069 13.780 C 237.649 13.561,236.969 13.436,236.560 13.502 C 236.150 13.567,235.094 13.376,234.214 13.077 C 233.334 12.779,232.263 12.531,231.834 12.527 C 230.767 12.518,229.222 12.273,228.516 12.001 C 227.890 11.761,223.726 11.311,220.508 11.136 C 219.434 11.077,218.467 10.984,218.359 10.928 C 218.129 10.808,215.540 10.640,210.925 10.447 C 209.092 10.370,207.422 10.207,207.214 10.084 C 206.693 9.777,193.101 9.764,192.794 10.071 " stroke="none" fill="#944c04" fill-rule="evenodd"></path><path id="path1" d="M328.885 339.746 L 327.539 341.211 329.004 339.865 C 330.367 338.612,330.648 338.281,330.350 338.281 C 330.285 338.281,329.626 338.940,328.885 339.746 " stroke="none" fill="#9c4c04" fill-rule="evenodd"></path><path id="path2" d="M177.832 11.207 C 178.208 11.305,178.823 11.305,179.199 11.207 C 179.575 11.109,179.268 11.028,178.516 11.028 C 177.764 11.028,177.456 11.109,177.832 11.207 M115.527 29.554 C 114.722 29.888,114.063 30.322,114.063 30.518 C 114.063 30.715,114.766 30.517,115.625 30.078 C 117.928 28.903,117.868 28.583,115.527 29.554 M332.031 63.533 C 332.031 63.961,335.864 67.806,336.040 67.555 C 336.106 67.460,335.231 66.435,334.095 65.276 C 332.960 64.118,332.031 63.333,332.031 63.533 M65.664 65.469 C 65.155 65.998,64.820 66.512,64.920 66.612 C 65.019 66.712,65.513 66.356,66.016 65.820 C 66.519 65.285,66.854 64.770,66.760 64.677 C 66.667 64.583,66.173 64.940,65.664 65.469 M342.261 74.414 C 342.728 74.951,343.170 75.391,343.244 75.391 C 343.317 75.391,343.089 74.951,342.738 74.414 C 342.386 73.877,341.943 73.438,341.755 73.438 C 341.566 73.438,341.794 73.877,342.261 74.414 M344.141 76.758 C 344.408 77.080,344.803 77.344,345.018 77.344 C 345.235 77.344,345.193 77.085,344.922 76.758 C 344.654 76.436,344.260 76.172,344.045 76.172 C 343.827 76.172,343.869 76.431,344.141 76.758 M364.728 105.626 C 365.114 106.142,365.486 106.511,365.554 106.445 C 365.760 106.249,364.681 104.688,364.341 104.688 C 364.168 104.688,364.342 105.110,364.728 105.626 M375.448 127.148 C 375.430 127.578,375.674 128.271,375.989 128.688 C 376.304 129.105,376.563 129.272,376.563 129.059 C 376.563 128.846,376.404 128.505,376.210 128.301 C 376.016 128.097,375.773 127.578,375.669 127.148 L 375.481 126.367 375.448 127.148 M15.280 154.753 C 15.255 155.112,15.133 155.727,15.010 156.120 C 14.796 156.799,14.808 156.800,15.231 156.140 C 15.477 155.757,15.598 155.142,15.501 154.773 C 15.342 154.168,15.321 154.166,15.280 154.753 M39.764 302.341 C 40.130 302.984,40.573 303.512,40.749 303.513 C 40.925 303.515,40.693 302.988,40.234 302.344 C 39.162 300.838,38.908 300.837,39.764 302.341 M353.737 311.230 C 352.893 312.309,352.825 312.491,353.480 311.918 C 354.263 311.234,355.296 309.766,354.994 309.766 C 354.933 309.766,354.367 310.425,353.737 311.230 M177.832 388.941 C 178.208 389.039,178.823 389.039,179.199 388.941 C 179.575 388.843,179.268 388.763,178.516 388.763 C 177.764 388.763,177.456 388.843,177.832 388.941 " stroke="none" fill="#984c04" fill-rule="evenodd"></path><path id="path3" d="M177.832 11.207 C 178.208 11.305,178.823 11.305,179.199 11.207 C 179.575 11.109,179.268 11.028,178.516 11.028 C 177.764 11.028,177.456 11.109,177.832 11.207 M115.527 29.554 C 114.722 29.888,114.063 30.322,114.063 30.518 C 114.063 30.715,114.766 30.517,115.625 30.078 C 117.928 28.903,117.868 28.583,115.527 29.554 M332.031 63.533 C 332.031 63.961,335.864 67.806,336.040 67.555 C 336.106 67.460,335.231 66.435,334.095 65.276 C 332.960 64.118,332.031 63.333,332.031 63.533 M65.664 65.469 C 65.155 65.998,64.820 66.512,64.920 66.612 C 65.019 66.712,65.513 66.356,66.016 65.820 C 66.519 65.285,66.854 64.770,66.760 64.677 C 66.667 64.583,66.173 64.940,65.664 65.469 M342.261 74.414 C 342.728 74.951,343.170 75.391,343.244 75.391 C 343.317 75.391,343.089 74.951,342.738 74.414 C 342.386 73.877,341.943 73.438,341.755 73.438 C 341.566 73.438,341.794 73.877,342.261 74.414 M344.141 76.758 C 344.408 77.080,344.803 77.344,345.018 77.344 C 345.235 77.344,345.193 77.085,344.922 76.758 C 344.654 76.436,344.260 76.172,344.045 76.172 C 343.827 76.172,343.869 76.431,344.141 76.758 M364.728 105.626 C 365.114 106.142,365.486 106.511,365.554 106.445 C 365.760 106.249,364.681 104.688,364.341 104.688 C 364.168 104.688,364.342 105.110,364.728 105.626 M375.448 127.148 C 375.430 127.578,375.674 128.271,375.989 128.688 C 376.304 129.105,376.563 129.272,376.563 129.059 C 376.563 128.846,376.404 128.505,376.210 128.301 C 376.016 128.097,375.773 127.578,375.669 127.148 L 375.481 126.367 375.448 127.148 M15.280 154.753 C 15.255 155.112,15.133 155.727,15.010 156.120 C 14.796 156.799,14.808 156.800,15.231 156.140 C 15.477 155.757,15.598 155.142,15.501 154.773 C 15.342 154.168,15.321 154.166,15.280 154.753 M39.764 302.341 C 40.130 302.984,40.573 303.512,40.749 303.513 C 40.925 303.515,40.693 302.988,40.234 302.344 C 39.162 300.838,38.908 300.837,39.764 302.341 M353.737 311.230 C 352.893 312.309,352.825 312.491,353.480 311.918 C 354.263 311.234,355.296 309.766,354.994 309.766 C 354.933 309.766,354.367 310.425,353.737 311.230 M177.832 388.941 C 178.208 389.039,178.823 389.039,179.199 388.941 C 179.575 388.843,179.268 388.763,178.516 388.763 C 177.764 388.763,177.456 388.843,177.832 388.941 " stroke="none" fill="#984c04" fill-rule="evenodd"></path><path id="path4" d="M177.832 11.207 C 178.208 11.305,178.823 11.305,179.199 11.207 C 179.575 11.109,179.268 11.028,178.516 11.028 C 177.764 11.028,177.456 11.109,177.832 11.207 M115.527 29.554 C 114.722 29.888,114.063 30.322,114.063 30.518 C 114.063 30.715,114.766 30.517,115.625 30.078 C 117.928 28.903,117.868 28.583,115.527 29.554 M332.031 63.533 C 332.031 63.961,335.864 67.806,336.040 67.555 C 336.106 67.460,335.231 66.435,334.095 65.276 C 332.960 64.118,332.031 63.333,332.031 63.533 M65.664 65.469 C 65.155 65.998,64.820 66.512,64.920 66.612 C 65.019 66.712,65.513 66.356,66.016 65.820 C 66.519 65.285,66.854 64.770,66.760 64.677 C 66.667 64.583,66.173 64.940,65.664 65.469 M342.261 74.414 C 342.728 74.951,343.170 75.391,343.244 75.391 C 343.317 75.391,343.089 74.951,342.738 74.414 C 342.386 73.877,341.943 73.438,341.755 73.438 C 341.566 73.438,341.794 73.877,342.261 74.414 M344.141 76.758 C 344.408 77.080,344.803 77.344,345.018 77.344 C 345.235 77.344,345.193 77.085,344.922 76.758 C 344.654 76.436,344.260 76.172,344.045 76.172 C 343.827 76.172,343.869 76.431,344.141 76.758 M364.728 105.626 C 365.114 106.142,365.486 106.511,365.554 106.445 C 365.760 106.249,364.681 104.688,364.341 104.688 C 364.168 104.688,364.342 105.110,364.728 105.626 M375.448 127.148 C 375.430 127.578,375.674 128.271,375.989 128.688 C 376.304 129.105,376.563 129.272,376.563 129.059 C 376.563 128.846,376.404 128.505,376.210 128.301 C 376.016 128.097,375.773 127.578,375.669 127.148 L 375.481 126.367 375.448 127.148 M15.280 154.753 C 15.255 155.112,15.133 155.727,15.010 156.120 C 14.796 156.799,14.808 156.800,15.231 156.140 C 15.477 155.757,15.598 155.142,15.501 154.773 C 15.342 154.168,15.321 154.166,15.280 154.753 M39.764 302.341 C 40.130 302.984,40.573 303.512,40.749 303.513 C 40.925 303.515,40.693 302.988,40.234 302.344 C 39.162 300.838,38.908 300.837,39.764 302.341 M353.737 311.230 C 352.893 312.309,352.825 312.491,353.480 311.918 C 354.263 311.234,355.296 309.766,354.994 309.766 C 354.933 309.766,354.367 310.425,353.737 311.230 M177.832 388.941 C 178.208 389.039,178.823 389.039,179.199 388.941 C 179.575 388.843,179.268 388.763,178.516 388.763 C 177.764 388.763,177.456 388.843,177.832 388.941 " stroke="none" fill="#984c04" fill-rule="evenodd"></path></g></svg>